<svg width="282" height="235" viewBox="0 0 282 235" fill="none" xmlns="http://www.w3.org/2000/svg">
<path d="M281.881 117.221C281.881 181.96 229.399 234.442 164.66 234.442C99.9208 234.442 0.515286 181.96 0.515286 117.221C0.515286 52.4816 99.9208 0 164.66 0C229.399 0 281.881 52.4816 281.881 117.221Z" fill="white"/>
<path d="M220.287 63.7967C213.847 52.5239 207.67 41.0067 202.244 29.2109C199.452 23.1422 196.073 16.3811 194.981 9.6977C194.878 9.06824 194.937 8.68078 195.448 9.33824C198.499 13.261 200.861 17.94 203.484 22.1315C212.502 36.543 222.571 49.9617 234.609 62.0071C237.744 65.1441 241.033 68.1255 244.356 71.061C245.802 72.3385 247.415 74.0832 249.141 75.0614C250.603 75.8901 247.349 72.216 246.402 70.8268C240.952 62.8287 235.479 54.8402 230.266 46.6839C225.607 39.3944 220.769 31.917 217.359 23.9347C216.517 21.9634 215.842 19.9094 214.806 18.0314C214.665 17.7763 213.753 16.7394 213.999 16.4649C214.229 16.2077 214.471 16.5861 214.63 16.6774C216.348 17.6665 217.631 19.5985 218.797 21.1119C228.497 33.7099 237.99 46.4783 249.074 57.932C253.669 62.6798 259.249 67.1012 265.354 69.7736C266.157 70.125 267.112 70.4409 267.999 70.4436C268.091 70.4439 267.492 70.1208 267.444 70.081C266.044 68.9335 264.955 67.1962 263.923 65.7538C260.829 61.428 258.094 56.8634 255.423 52.2673C249.379 41.8631 243.552 31.3051 238.289 20.4815C235.638 15.0304 233.286 9.44613 230.716 3.96007C230.213 2.88522 231.479 5.39115 231.479 5.39115C235.455 13.7032 240.43 21.377 245.827 28.8367" stroke="#8EE4FF" stroke-width="4.64399" stroke-linecap="round"/>
</svg>
