<svg width="212" height="231" viewBox="0 0 212 231" fill="none" xmlns="http://www.w3.org/2000/svg">
<path d="M276.442 113.252C276.442 177.991 223.96 230.473 159.221 230.473C94.4816 230.473 42 177.991 42 113.252C42 48.5128 182.481 0 247.22 0C311.959 0 276.442 48.5128 276.442 113.252Z" fill="white"/>
<path d="M14.4435 119.53C25.6961 113.055 37.1937 106.842 48.9725 101.378C55.0323 98.5674 61.7828 95.1677 68.4627 94.0544C69.0918 93.9495 69.4794 94.0073 68.8236 94.5206C64.9105 97.583 60.2389 99.9606 56.0557 102.596C41.6727 111.659 28.2857 121.771 16.2783 133.847C13.1511 136.992 10.1801 140.29 7.25503 143.622C5.98207 145.072 4.24245 146.69 3.26976 148.419C2.44563 149.885 6.10949 146.618 7.49565 145.667C15.4766 140.192 23.4479 134.694 31.5877 129.456C38.8625 124.774 46.3247 119.912 54.2962 116.477C56.2648 115.629 58.3167 114.947 60.1914 113.906C60.4461 113.764 61.4801 112.849 61.7554 113.093C62.0132 113.323 61.6356 113.566 61.5449 113.725C60.5611 115.447 58.6332 116.736 57.1235 117.906C44.5561 127.646 31.8176 137.179 20.3989 148.299C15.6655 152.909 11.2617 158.502 8.60851 164.616C8.25967 165.42 7.94681 166.376 7.94681 167.263C7.94681 167.355 8.26804 166.755 8.30774 166.707C9.45076 165.304 11.1847 164.209 12.6239 163.172C16.9399 160.065 21.4958 157.315 26.0835 154.63C36.4686 148.553 47.0083 142.693 57.8152 137.396C63.258 134.728 68.8348 132.358 74.3127 129.771C75.386 129.265 72.8841 130.538 72.8841 130.538C64.5846 134.541 56.9264 139.539 49.4838 144.961" stroke="#8EE4FF" stroke-width="4.64399" stroke-linecap="round"/>
</svg>
