<svg width="65" height="96" viewBox="0 0 65 96" fill="none" xmlns="http://www.w3.org/2000/svg">
<path d="M2.95125 46.7225C11.0703 36.5921 19.513 26.6161 28.4907 17.2357C33.1094 12.4098 38.1567 6.78383 43.9715 3.31273C44.5192 2.98581 44.9012 2.89836 44.4775 3.61534C41.9496 7.89321 38.4657 11.8097 35.5307 15.7888C25.4395 29.4699 16.658 43.7645 9.87728 59.3862C8.11135 63.4546 6.54661 67.6088 5.03691 71.7775C4.37991 73.5917 3.34962 75.7325 3.074 77.6973C2.84047 79.362 5.06206 74.9852 6.00633 73.5944C11.4431 65.5872 16.8625 57.5621 22.5336 49.7177C27.602 42.7069 32.7792 35.4599 38.9507 29.3562C40.4748 27.8488 42.1371 26.4661 43.5033 24.813C43.689 24.5884 44.3183 23.3592 44.6639 23.4868C44.9875 23.6063 44.7246 23.9707 44.698 24.1517C44.4093 26.1133 43.0837 28.0165 42.1042 29.6563C33.9505 43.3061 25.5622 56.8259 18.9813 71.3429C16.2534 77.3607 14.1908 84.1742 13.9482 90.8346C13.9162 91.7103 13.9733 92.7145 14.2965 93.5405C14.3301 93.6264 14.4106 92.9507 14.4299 92.8908C14.9831 91.168 16.1986 89.5163 17.1612 88.0268C20.048 83.5601 23.2885 79.3392 26.5823 75.1672C34.0385 65.7232 41.7179 56.4253 49.8512 47.554C53.9474 43.0862 58.277 38.8468 62.4356 34.4416C63.2503 33.5785 61.3846 35.6765 61.3846 35.6765C55.1146 42.4284 49.8046 49.8739 44.8494 57.6345" stroke="#FAF465" stroke-width="4.64399" stroke-linecap="round"/>
</svg>
