<svg width="21" height="21" viewBox="0 0 21 21" fill="none" xmlns="http://www.w3.org/2000/svg">
<g clip-path="url(#clip0_167_111)">
<path d="M19.3251 6.44971V14.783C19.3251 15.3356 19.1056 15.8655 18.7149 16.2562C18.3242 16.6469 17.7943 16.8664 17.2418 16.8664H4.74178C4.18925 16.8664 3.65934 16.6469 3.26864 16.2562C2.87794 15.8655 2.65845 15.3356 2.65845 14.783V6.44971" stroke="#170F49" stroke-width="1.4" stroke-linecap="round" stroke-linejoin="round"/>
<path d="M19.3251 6.44954C19.3251 5.89701 19.1056 5.36711 18.7149 4.97641C18.3242 4.5857 17.7943 4.36621 17.2418 4.36621H4.74178C4.18925 4.36621 3.65934 4.5857 3.26864 4.97641C2.87794 5.36711 2.65845 5.89701 2.65845 6.44954L9.88761 10.9634C10.2187 11.1704 10.6013 11.2801 10.9918 11.2801C11.3822 11.2801 11.7648 11.1704 12.0959 10.9634L19.3251 6.44954Z" stroke="#170F49" stroke-width="1.4" stroke-linecap="round" stroke-linejoin="round"/>
</g>
<defs>
<clipPath id="clip0_167_111">
<rect width="20" height="20" fill="white" transform="translate(0.991699 0.5)"/>
</clipPath>
</defs>
</svg>
