<svg width="21" height="21" viewBox="0 0 21 21" fill="none" xmlns="http://www.w3.org/2000/svg">
<path d="M17.8526 9.15577C17.8526 14.5346 12.3434 17.8484 11.1985 18.4795C11.1351 18.5145 11.0639 18.5329 10.9914 18.5329C10.919 18.5329 10.8477 18.5145 10.7843 18.4795C9.63858 17.8484 4.1311 14.5346 4.1311 9.15577C4.1311 4.86779 6.70389 1.86621 10.9919 1.86621C15.2798 1.86621 17.8526 4.86779 17.8526 9.15577Z" stroke="#170F49" stroke-width="1.4" stroke-linecap="round" stroke-linejoin="round"/>
<path d="M7.56152 8.72677C7.56152 9.63656 7.92294 10.5091 8.56626 11.1524C9.20958 11.7957 10.0821 12.1571 10.9919 12.1571C11.9017 12.1571 12.7742 11.7957 13.4175 11.1524C14.0609 10.5091 14.4223 9.63656 14.4223 8.72677C14.4223 7.81697 14.0609 6.94444 13.4175 6.30112C12.7742 5.6578 11.9017 5.29639 10.9919 5.29639C10.0821 5.29639 9.20958 5.6578 8.56626 6.30112C7.92294 6.94444 7.56152 7.81697 7.56152 8.72677V8.72677Z" stroke="#170F49" stroke-width="1.4" stroke-linecap="round" stroke-linejoin="round"/>
</svg>
