<svg width="21" height="21" viewBox="0 0 21 21" fill="none" xmlns="http://www.w3.org/2000/svg">
<g clip-path="url(#clip0_167_118)">
<path d="M13.2434 17.8851L13.2525 17.8915C14.0395 18.3926 14.974 18.6102 15.9014 18.5084C16.8289 18.4065 17.6939 17.9913 18.3534 17.3313L18.9263 16.7584C19.0533 16.6315 19.154 16.4808 19.2227 16.315C19.2915 16.1492 19.3268 15.9714 19.3268 15.7919C19.3268 15.6124 19.2915 15.4347 19.2227 15.2688C19.154 15.103 19.0533 14.9524 18.9263 14.8255L16.5098 12.4107C16.3829 12.2838 16.2322 12.183 16.0664 12.1143C15.9006 12.0456 15.7228 12.0102 15.5433 12.0102C15.3638 12.0102 15.1861 12.0456 15.0203 12.1143C14.8544 12.183 14.7038 12.2838 14.5769 12.4107C14.3207 12.6669 13.9732 12.8108 13.6109 12.8108C13.2486 12.8108 12.9011 12.6669 12.6449 12.4107L8.78096 8.54586C8.52481 8.28963 8.38092 7.94217 8.38092 7.57987C8.38092 7.21757 8.52481 6.8701 8.78096 6.61388C8.90792 6.487 9.00865 6.33633 9.07736 6.17051C9.14608 6.00468 9.18145 5.82694 9.18145 5.64744C9.18145 5.46794 9.14608 5.29019 9.07736 5.12437C9.00865 4.95854 8.90792 4.80788 8.78096 4.68099L6.3653 2.26625C6.10908 2.01011 5.76161 1.86621 5.39931 1.86621C5.03702 1.86621 4.68955 2.01011 4.43333 2.26625L3.85947 2.83919C3.19962 3.49883 2.78456 4.36385 2.68287 5.29131C2.58118 6.21878 2.79895 7.15318 3.30019 7.94012L3.30566 7.94923C5.95284 11.8658 9.32628 15.2386 13.2434 17.8851V17.8851Z" stroke="#170F49" stroke-width="1.4" stroke-linecap="round" stroke-linejoin="round"/>
</g>
<defs>
<clipPath id="clip0_167_118">
<rect width="20" height="20" fill="white" transform="translate(0.991699 0.5)"/>
</clipPath>
</defs>
</svg>
