<svg width="33" height="29" viewBox="0 0 33 29" fill="none" xmlns="http://www.w3.org/2000/svg">
<path d="M31.5381 6.09651C31.0407 4.94477 30.3234 3.90108 29.4266 3.02385C28.529 2.14401 27.4708 1.44482 26.3094 0.964284C25.1051 0.464024 23.8134 0.207962 22.5094 0.210964C20.6799 0.210964 18.8949 0.71194 17.3437 1.65823C16.9727 1.8846 16.6201 2.13323 16.2861 2.40413C15.9521 2.13323 15.5996 1.8846 15.2285 1.65823C13.6773 0.71194 11.8924 0.210964 10.0629 0.210964C8.74551 0.210964 7.46894 0.463307 6.26289 0.964284C5.09766 1.44671 4.04746 2.14065 3.1457 3.02385C2.24764 3.90009 1.53025 4.94403 1.03418 6.09651C0.518359 7.29514 0.254883 8.56799 0.254883 9.87795C0.254883 11.1137 0.507227 12.4014 1.0082 13.7114C1.42754 14.8061 2.02871 15.9416 2.79687 17.0883C4.01406 18.903 5.68769 20.7955 7.76582 22.7141C11.2096 25.8944 14.6199 28.0912 14.7646 28.1803L15.6441 28.7444C16.0338 28.993 16.5348 28.993 16.9244 28.7444L17.8039 28.1803C17.9486 28.0875 21.3553 25.8944 24.8027 22.7141C26.8809 20.7955 28.5545 18.903 29.7717 17.0883C30.5398 15.9416 31.1447 14.8061 31.5603 13.7114C32.0613 12.4014 32.3137 11.1137 32.3137 9.87795C32.3174 8.56799 32.0539 7.29514 31.5381 6.09651Z" fill="#FAF465"/>
</svg>
