<svg width="14" height="14" viewBox="0 0 14 14" fill="none"
    xmlns="http://www.w3.org/2000/svg">
    <path d="M11.5938 2.1875H2.40625C2.00027 2.18793 1.61104 2.3494 1.32397 2.63647C1.0369 2.92354 0.875434 3.31277 0.875 3.71875V10.2812C0.875434 10.6872 1.0369 11.0765 1.32397 11.3635C1.61104 11.6506 2.00027 11.8121 2.40625 11.8125H11.5938C11.9997 11.8121 12.389 11.6506 12.676 11.3635C12.9631 11.0765 13.1246 10.6872 13.125 10.2812V3.71875C13.1246 3.31277 12.9631 2.92354 12.676 2.63647C12.389 2.3494 11.9997 2.18793 11.5938 2.1875ZM11.206 4.72035L7.26852 7.78285C7.19173 7.84254 7.09725 7.87494 7 7.87494C6.90275 7.87494 6.80827 7.84254 6.73148 7.78285L2.79398 4.72035C2.74772 4.68542 2.70886 4.64163 2.67967 4.59155C2.65047 4.54147 2.63152 4.48608 2.62392 4.42861C2.61632 4.37114 2.62021 4.31273 2.63537 4.25678C2.65054 4.20083 2.67667 4.14844 2.71225 4.10268C2.74784 4.05691 2.79216 4.01868 2.84265 3.99019C2.89314 3.9617 2.94879 3.94353 3.00636 3.93674C3.06393 3.92994 3.12228 3.93466 3.17801 3.95061C3.23375 3.96656 3.28576 3.99342 3.33102 4.02965L7 6.88324L10.669 4.02965C10.7607 3.96037 10.8761 3.92998 10.99 3.94506C11.104 3.96014 11.2075 4.01948 11.278 4.11024C11.3486 4.201 11.3806 4.31589 11.3671 4.43006C11.3536 4.54423 11.2958 4.64851 11.206 4.72035Z" fill="white"/>
</svg>
