<svg width="14" height="14" viewBox="0 0 14 14" fill="none" xmlns="http://www.w3.org/2000/svg">
<path d="M6.99999 13C6.15811 12.2819 5.37776 11.4946 4.66711 10.6465C3.60065 9.37271 2.33423 7.47574 2.33423 5.6681C2.33377 4.74492 2.60718 3.84235 3.11987 3.07462C3.63256 2.30689 4.36148 1.70851 5.21438 1.3552C6.06728 1.0019 7.00582 0.909551 7.91122 1.08985C8.81662 1.27015 9.64819 1.71499 10.3007 2.36807C10.7351 2.80056 11.0794 3.31491 11.3137 3.88136C11.548 4.44781 11.6677 5.0551 11.6657 5.6681C11.6657 7.47574 10.3993 9.37271 9.33286 10.6465C8.62221 11.4946 7.84186 12.2819 6.99999 13ZM6.99999 3.66849C6.46966 3.66849 5.96105 3.87916 5.58605 4.25416C5.21105 4.62916 5.00038 5.13777 5.00038 5.6681C5.00038 6.19843 5.21105 6.70704 5.58605 7.08203C5.96105 7.45703 6.46966 7.66771 6.99999 7.66771C7.53032 7.66771 8.03892 7.45703 8.41392 7.08203C8.78892 6.70704 8.9996 6.19843 8.9996 5.6681C8.9996 5.13777 8.78892 4.62916 8.41392 4.25416C8.03892 3.87916 7.53032 3.66849 6.99999 3.66849Z" fill="white"/>
</svg>
