<svg width="14" height="14" viewBox="0 0 14 14" fill="none" xmlns="http://www.w3.org/2000/svg">
<path d="M12.0257 9.19872C11.2404 9.19872 10.4866 9.07308 9.78299 8.84065C9.67253 8.80547 9.5546 8.80091 9.44176 8.82746C9.32892 8.85401 9.2254 8.91068 9.14222 8.99142L7.76017 10.3735C5.97851 9.46709 4.52938 8.02015 3.62029 6.23988L5.00234 4.85155C5.17824 4.68193 5.2285 4.43693 5.1594 4.21706C4.92109 3.4934 4.8002 2.73625 4.80132 1.97437C4.80132 1.62885 4.51863 1.34616 4.17311 1.34616H1.9744C1.62888 1.34616 1.34619 1.62885 1.34619 1.97437C1.34619 7.87321 6.12683 12.6539 12.0257 12.6539C12.3712 12.6539 12.6539 12.3712 12.6539 12.0256V9.82693C12.6539 9.48142 12.3712 9.19872 12.0257 9.19872ZM7.00004 1.34616V7.62821L8.88465 5.7436H12.6539V1.34616H7.00004Z" fill="white"/>
</svg>
